<svg xmlns="http://www.w3.org/2000/svg" xmlns:xlink="http://www.w3.org/1999/xlink" viewBox="0 0 300 300"><defs><style>.cls-1{isolation:isolate;}.cls-2,.cls-3,.cls-4{fill:none;stroke:#8ed4c7;stroke-miterlimit:10;stroke-width:0.67px;}.cls-2,.cls-3{stroke-linecap:round;}.cls-2{stroke-dasharray:0 4.45;}.cls-5{fill:#c3e8e1;}.cls-6{fill:#8ed4c7;}.cls-12,.cls-7{fill:#fff;}.cls-8{fill:#68c6b4;}.cls-11,.cls-9{fill:#00704a;}.cls-10{fill:#91d6cb;}.cls-11,.cls-12{fill-rule:evenodd;}.cls-13,.cls-15,.cls-16,.cls-17,.cls-18,.cls-19,.cls-20,.cls-21{opacity:0.15;}.cls-13,.cls-14,.cls-15,.cls-16,.cls-17,.cls-18,.cls-19,.cls-20,.cls-21{mix-blend-mode:multiply;}.cls-13{fill:url(#radial-gradient);}.cls-14{opacity:0.4;fill:url(#radial-gradient-2);}.cls-15{fill:url(#radial-gradient-3);}.cls-16{fill:url(#radial-gradient-4);}.cls-17{fill:url(#radial-gradient-5);}.cls-18{fill:url(#radial-gradient-6);}.cls-19{fill:url(#radial-gradient-7);}.cls-20{fill:url(#radial-gradient-8);}.cls-21{fill:url(#radial-gradient-9);}</style><radialGradient id="radial-gradient" cx="201.57" cy="27.97" r="24.76" gradientUnits="userSpaceOnUse"><stop offset="0" stop-color="#fff"/><stop offset="0.37" stop-color="#fdfefe"/><stop offset="0.51" stop-color="#f6faf9"/><stop offset="0.6" stop-color="#ebf4f0"/><stop offset="0.68" stop-color="#daeae4"/><stop offset="0.75" stop-color="#c4ded5"/><stop offset="0.8" stop-color="#a8cec2"/><stop offset="0.86" stop-color="#88bcaa"/><stop offset="0.91" stop-color="#62a790"/><stop offset="0.95" stop-color="#378f71"/><stop offset="0.99" stop-color="#097551"/><stop offset="1" stop-color="#00704a"/></radialGradient><radialGradient id="radial-gradient-2" cx="150.31" cy="149.43" r="54.88" xlink:href="#radial-gradient"/><radialGradient id="radial-gradient-3" cx="98.87" cy="27.97" r="24.76" xlink:href="#radial-gradient"/><radialGradient id="radial-gradient-4" cx="271.77" cy="97.16" r="24.76" xlink:href="#radial-gradient"/><radialGradient id="radial-gradient-5" cx="271.77" cy="200.6" r="24.76" xlink:href="#radial-gradient"/><radialGradient id="radial-gradient-6" cx="201.43" cy="271.27" r="24.76" xlink:href="#radial-gradient"/><radialGradient id="radial-gradient-7" cx="28.95" cy="200.6" r="24.76" xlink:href="#radial-gradient"/><radialGradient id="radial-gradient-8" cx="28.95" cy="97.16" r="24.76" xlink:href="#radial-gradient"/><radialGradient id="radial-gradient-9" cx="98.84" cy="271.24" r="24.76" xlink:href="#radial-gradient"/></defs><title>SIGN MASTER WEB BACKGROUNDS</title><g class="cls-1"><g id="icons_artwork" data-name="icons artwork"><circle class="cls-2" cx="150.31" cy="149.43" r="70.75"/><path class="cls-3" d="M84.93,176.51a70.82,70.82,0,0,1,37.84-92.27"/><path class="cls-3" d="M182.53,227.23a84.25,84.25,0,0,1-116.41-77.8"/><line class="cls-4" x1="50.26" y1="149.43" x2="66.02" y2="149.43"/><line class="cls-4" x1="57.86" y1="187.73" x2="85.2" y2="176.4"/><line class="cls-4" x1="123.37" y1="84.39" x2="112.01" y2="56.98"/><line class="cls-4" x1="188.6" y1="241.88" x2="182.44" y2="227"/><line class="cls-4" x1="221.06" y1="220.18" x2="200.44" y2="199.57"/><line class="cls-4" x1="112.01" y1="241.88" x2="123.23" y2="214.81"/><path class="cls-2" d="M234.5,149.43a84.19,84.19,0,1,1-84.19-84.18A84.21,84.21,0,0,1,234.5,149.43Z"/><circle class="cls-5" cx="150.31" cy="149.43" r="54.88"/><circle class="cls-6" cx="98.84" cy="27.94" r="24.73"/><circle class="cls-6" cx="271.75" cy="97.13" r="24.73"/><circle class="cls-6" cx="271.75" cy="200.57" r="24.73"/><circle class="cls-6" cx="201.41" cy="271.24" r="24.73"/><circle class="cls-6" cx="28.95" cy="200.6" r="24.73"/><circle class="cls-6" cx="98.84" cy="271.24" r="24.73"/><circle class="cls-6" cx="28.92" cy="97.13" r="24.73"/><path class="cls-7" d="M34.42,93.85c-5-2.12-5.22-8.14-5.22-8.14H27s-.2,6-5.23,8.15l1.33,2.07a11.58,11.58,0,0,1,5-3.5,11.75,11.75,0,0,1,5,3.49Z"/><path class="cls-4" d="M242.77,187.7l-27.08-11.19a70.82,70.82,0,0,0-38.3-92.46L188.59,57"/><path class="cls-4" d="M221,78.68,209.84,89.9a84,84,0,0,1,24.66,59.53h15.85"/><path class="cls-3" d="M200.34,199.46a70.84,70.84,0,0,1-77,15.41"/><path class="cls-4" d="M150.31,249.47V204.32a54.92,54.92,0,0,0,50.57-76.25l41.42-16.74"/><path class="cls-4" d="M150.31,49.39V94.55a54.71,54.71,0,0,0-38.81,16.07L79.56,78.68"/><path class="cls-4" d="M79.51,220.18l32-31.94a54.92,54.92,0,0,1-11.91-59.82L58.14,111.33"/><circle class="cls-6" cx="50.26" cy="149.43" r="2.15"/><circle class="cls-6" cx="79.56" cy="78.68" r="2.15"/><circle class="cls-6" cx="79.56" cy="220.18" r="2.15"/><circle class="cls-6" cx="150.31" cy="249.47" r="2.15"/><circle class="cls-6" cx="221.06" cy="220.18" r="2.15"/><circle class="cls-6" cx="250.35" cy="149.43" r="2.15"/><circle class="cls-6" cx="221.04" cy="78.68" r="2.15"/><circle class="cls-6" cx="150.31" cy="49.8" r="2.15"/><path class="cls-8" d="M133.3,123.12l.94-1.83-1.51-1.51-1.83.94a5.87,5.87,0,0,0-1.07-.44l-.63-2h-2.13l-.64,2a5.5,5.5,0,0,0-1.06.44l-1.84-.94-1.5,1.51.94,1.84a5.54,5.54,0,0,0-.45,1.06l-2,.64V127l2,.64a5.91,5.91,0,0,0,.45,1.07l-.94,1.83,1.5,1.51,1.84-.94a5.5,5.5,0,0,0,1.06.44l.64,2h2.13l.63-2a5.87,5.87,0,0,0,1.07-.44l1.83.94,1.51-1.51-.94-1.83a5.87,5.87,0,0,0,.44-1.07l2-.64v-2.12l-2-.64A5.87,5.87,0,0,0,133.3,123.12Zm-5.17,6.25a3.48,3.48,0,1,1,3.49-3.48A3.48,3.48,0,0,1,128.13,129.37Z"/><path class="cls-8" d="M128.13,123.94a2,2,0,1,0,2,2A1.94,1.94,0,0,0,128.13,123.94Z"/><path class="cls-8" d="M180.31,166.94l2.3-1.58,0-.14c-.08-.38-.19-.76-.3-1.12s-.26-.72-.41-1.07l-.06-.14L179,163a9.58,9.58,0,0,0-1-1.42l.94-2.64-.11-.1a12.24,12.24,0,0,0-1.86-1.35l-.13-.07-2.22,1.7a9.31,9.31,0,0,0-1.67-.54l-.79-2.69H172a11,11,0,0,0-2.29,0h-.15l-.79,2.69a7.57,7.57,0,0,0-.85.23,8.11,8.11,0,0,0-.82.31l-2.22-1.71-.13.08a11.77,11.77,0,0,0-1.86,1.35l-.11.1.94,2.63a10.13,10.13,0,0,0-1,1.42l-2.79-.07-.06.13a11.43,11.43,0,0,0-.71,2.19l0,.15,2.31,1.58a8.53,8.53,0,0,0,0,1.75l-2.31,1.58,0,.15a10.06,10.06,0,0,0,.3,1.11c.12.36.25.72.41,1.08l.06.13,2.79-.07a9.51,9.51,0,0,0,1,1.42l-.93,2.63.11.1a11.77,11.77,0,0,0,1.86,1.35l.13.08,2.21-1.71a9.89,9.89,0,0,0,1.67.55l.79,2.68.15,0a12.62,12.62,0,0,0,2.3,0l.15,0,.79-2.68c.29-.07.57-.14.85-.23s.55-.2.82-.31l2.22,1.7.13-.07a12.31,12.31,0,0,0,1.86-1.36l.11-.1-.94-2.63a8.85,8.85,0,0,0,1-1.42l2.8.08.06-.14a12.73,12.73,0,0,0,.71-2.19l0-.14-2.3-1.58A10.34,10.34,0,0,0,180.31,166.94Zm-9.47,7.65a6.78,6.78,0,1,1,6.78-6.77A6.77,6.77,0,0,1,170.84,174.59Zm0-12.29a5.52,5.52,0,1,0,5.52,5.52A5.52,5.52,0,0,0,170.84,162.3Zm0,8.94a3.42,3.42,0,1,1,3.42-3.42A3.42,3.42,0,0,1,170.84,171.24Z"/><path class="cls-8" d="M147.6,153.55c0-.44-.13-.89-.21-1.33-.13-.66-3.21-.34-3.41-1s-.46-1.3-.45-1.31-.24-.6-.57-1.26,2.15-2.5,1.79-3.07c-.25-.37-.49-.75-.77-1.11-.4-.54-3,1.09-3.5.58a12.62,12.62,0,0,0-1-1,13.65,13.65,0,0,0-1.06-.9c-.56-.42.86-3.18.29-3.54-.38-.24-.78-.47-1.18-.67-.59-.31-2.26,2.3-2.9,2s-1.31-.46-1.31-.46-.62-.2-1.35-.35-.61-3.23-1.28-3.31c-.44-.05-.89-.08-1.34-.1-.67,0-1,3.06-1.74,3.1a12.27,12.27,0,0,0-1.38.16,11.65,11.65,0,0,0-1.36.27c-.67.17-2-2.66-2.59-2.44-.42.15-.84.32-1.26.5-.61.28.4,3.21-.21,3.55s-1.17.74-1.17.74-.54.36-1.11.83-2.91-1.54-3.39-1.06c-.32.31-.62.65-.92,1-.43.51,1.75,2.72,1.35,3.29s-.74,1.17-.75,1.17-.33.56-.63,1.23-3.29-.12-3.52.51c-.14.43-.28.86-.39,1.3-.17.65,2.75,1.69,2.64,2.38s-.15,1.38-.16,1.37,0,.65,0,1.39-3,1.31-3,2c0,.45.13.9.21,1.34.13.66,3.21.33,3.41,1s.46,1.31.45,1.31.24.61.57,1.27-2.15,2.49-1.79,3.07c.25.37.49.75.77,1.11.4.54,3-1.1,3.5-.58s1,1,1,1,.48.45,1.06.9-.86,3.18-.29,3.54c.38.24.77.46,1.18.67.59.31,2.26-2.3,2.9-2s1.31.46,1.31.46.62.19,1.35.34.61,3.24,1.28,3.32c.44.05.89.08,1.34.09.67,0,1-3.05,1.74-3.1a13.88,13.88,0,0,0,1.38-.15s.64-.09,1.36-.27,1.95,2.65,2.59,2.43c.42-.15.84-.32,1.26-.5.61-.27-.4-3.21.21-3.54s1.17-.74,1.17-.74.54-.37,1.11-.84,2.91,1.55,3.39,1.07c.32-.31.62-.66.92-1,.43-.52-1.75-2.72-1.35-3.29s.74-1.18.75-1.17.33-.56.63-1.24,3.29.13,3.52-.51c.14-.43.28-.86.39-1.29.17-.66-2.75-1.69-2.64-2.38s.15-1.38.16-1.38,0-.65,0-1.39S147.67,154.22,147.6,153.55Zm-7.12,3.08A11.81,11.81,0,1,1,129.53,144,11.81,11.81,0,0,1,140.48,156.63Z"/><path class="cls-8" d="M129.37,146.33a9.49,9.49,0,1,0,8.79,10.13A9.49,9.49,0,0,0,129.37,146.33Zm7.09,10a7.78,7.78,0,1,1-7.21-8.32A7.78,7.78,0,0,1,136.46,156.34Z"/><path class="cls-8" d="M129.07,150.53a5.28,5.28,0,1,0,4.89,5.64A5.28,5.28,0,0,0,129.07,150.53Z"/><path class="cls-8" d="M157.93,178.05a14.47,14.47,0,0,0-2.08,0l-.17-.46-.21-.44a14.67,14.67,0,0,0,1.46-1.49,5.6,5.6,0,0,0-.42-.62,13.38,13.38,0,0,0-1.93.77l-.33-.37-.36-.33a13.62,13.62,0,0,0,.77-1.93c-.2-.15-.41-.28-.62-.41a13.62,13.62,0,0,0-1.49,1.45l-.45-.21-.46-.17a13.17,13.17,0,0,0,0-2.08c-.24-.06-.48-.1-.73-.14a14.64,14.64,0,0,0-.82,1.91l-.49,0-.49,0a12.35,12.35,0,0,0-.82-1.91c-.24,0-.49.08-.73.14a14.49,14.49,0,0,0,0,2.08L147,174l-.44.21a13.62,13.62,0,0,0-1.49-1.45,5.55,5.55,0,0,0-.62.41,12.52,12.52,0,0,0,.77,1.93l-.36.33-.33.37a13.38,13.38,0,0,0-1.93-.77,4.49,4.49,0,0,0-.42.62,14.57,14.57,0,0,0,1.45,1.49l-.21.44-.17.46a14.33,14.33,0,0,0-2.07,0,6.31,6.31,0,0,0-.15.73,12.78,12.78,0,0,0,1.91.82l0,.49,0,.49a13.9,13.9,0,0,0-1.91.82,5.9,5.9,0,0,0,.15.73,13,13,0,0,0,2.07,0l.17.46.21.45a13.62,13.62,0,0,0-1.45,1.49,6.15,6.15,0,0,0,.42.62,14.69,14.69,0,0,0,1.93-.78l.33.37.36.33a12.52,12.52,0,0,0-.77,1.93,4.44,4.44,0,0,0,.62.41A12.76,12.76,0,0,0,146.6,186l.44.21.46.17a14.49,14.49,0,0,0,0,2.08,4.7,4.7,0,0,0,.73.14,12.35,12.35,0,0,0,.82-1.91l.49,0,.49,0a14.64,14.64,0,0,0,.82,1.91,4.48,4.48,0,0,0,.73-.14,13.15,13.15,0,0,0,0-2.08l.46-.17.45-.21a12.76,12.76,0,0,0,1.49,1.45,6,6,0,0,0,.62-.41,13.62,13.62,0,0,0-.77-1.93l.36-.33.33-.37a14.69,14.69,0,0,0,1.93.78c.15-.2.29-.41.42-.62a13.71,13.71,0,0,0-1.46-1.49l.21-.45.17-.46a13.15,13.15,0,0,0,2.08,0,4.48,4.48,0,0,0,.14-.73,13.4,13.4,0,0,0-1.91-.82l0-.49,0-.49a12.35,12.35,0,0,0,1.91-.82A4.7,4.7,0,0,0,157.93,178.05Zm-8.36,6.64a4.6,4.6,0,1,1,4.6-4.6A4.63,4.63,0,0,1,149.57,184.69Z"/><path class="cls-8" d="M163.11,151.19l-.4-2.32-1.57.28a5.38,5.38,0,0,0-.38-.66l1-1.25L160,145.73,159,147a4,4,0,0,0-.71-.27v-1.62H156v1.62a4,4,0,0,0-.71.27l-1-1.25-1.78,1.51,1,1.25a5.38,5.38,0,0,0-.38.66l-1.57-.28-.41,2.32,1.58.28a4.83,4.83,0,0,0,.13.76l-1.38.81,1.15,2,1.39-.82a3.86,3.86,0,0,0,.58.49l-.55,1.53,2.18.81.55-1.53.37,0,.38,0,.55,1.53,2.18-.81-.55-1.53a3.86,3.86,0,0,0,.58-.49l1.39.82,1.15-2-1.38-.81a6.35,6.35,0,0,0,.13-.76Zm-6,3.42a3.55,3.55,0,1,1,3.5-3.54A3.51,3.51,0,0,1,157.11,154.61Z"/><path class="cls-8" d="M174.5,141.22a3.71,3.71,0,1,0,3.71-3.71A3.71,3.71,0,0,0,174.5,141.22Z"/><path class="cls-8" d="M179.32,134a10.64,10.64,0,0,0-1.11-.09,10.84,10.84,0,0,0-1.11.09c-.52.07-1.56-2.58-2.18-2.38a8.52,8.52,0,0,0-1.17.49c-.59.28.56,2.92.14,3.22a9.75,9.75,0,0,0-.85.72,8.07,8.07,0,0,0-.72.85c-.31.42-2.94-.73-3.23-.14a9.91,9.91,0,0,0-.48,1.17c-.2.62,2.45,1.67,2.38,2.18a8.27,8.27,0,0,0-.09,1.11,8.16,8.16,0,0,0,.09,1.11c.07.52-2.58,1.57-2.38,2.19a9.12,9.12,0,0,0,.48,1.16c.29.59,2.92-.56,3.23-.14a8.07,8.07,0,0,0,.72.85,6.89,6.89,0,0,0,.85.72c.42.31-.73,2.94-.14,3.23a8.46,8.46,0,0,0,1.17.48c.62.2,1.66-2.45,2.18-2.38a9.48,9.48,0,0,0,1.11.1,9.31,9.31,0,0,0,1.11-.1c.52-.07,1.56,2.58,2.18,2.38a8,8,0,0,0,1.17-.48c.59-.29-.56-2.92-.14-3.23a6.89,6.89,0,0,0,.85-.72,8.07,8.07,0,0,0,.72-.85c.31-.42,2.94.73,3.23.14a9.12,9.12,0,0,0,.48-1.16c.2-.62-2.45-1.67-2.38-2.19a8.16,8.16,0,0,0,.09-1.11,8.27,8.27,0,0,0-.09-1.11c-.07-.51,2.58-1.56,2.38-2.18a9.91,9.91,0,0,0-.48-1.17c-.29-.59-2.92.56-3.23.14a8.07,8.07,0,0,0-.72-.85,9.75,9.75,0,0,0-.85-.72c-.42-.3.73-2.94.14-3.22a8,8,0,0,0-1.17-.49C180.88,131.42,179.84,134.07,179.32,134Zm4.18,7.22a5.29,5.29,0,1,1-5.29-5.28A5.32,5.32,0,0,1,183.5,141.22Z"/><path class="cls-9" d="M204.3,270.84a46.66,46.66,0,0,1-4.83,6c-2.32,2.17-4.66,3.27-7,3.27h-.36a7.48,7.48,0,0,1-3.46-1.06l-.86.82s5.63,4.44,12.37-2.38c3.09-3.13,3.9-5.54,4.11-6.62"/><path class="cls-9" d="M202.27,267.79l1,.93-4.7,4.86-1-1ZM199,276.3a50.22,50.22,0,0,0,5.09-6.39h0l.2-.25.31-.46,0,0,.74-1,1,.49L211.5,263l-4.18-3.88-6.41,7.08.77.36-1.3,1.36L189.23,278.5a6.67,6.67,0,0,0,3,.86c2.22.11,4.51-.92,6.8-3.06"/><rect class="cls-7" x="200.09" y="280" width="3.17" height="1.35"/><rect class="cls-7" x="204.89" y="280" width="3.17" height="1.35"/><rect class="cls-7" x="209.68" y="280" width="3.17" height="1.35"/><path class="cls-9" d="M24.18,197.45a4.79,4.79,0,0,0-6.46,1.12,4.32,4.32,0,0,0,1.33,6.14l10.62,6.83a4.78,4.78,0,0,0,6.46-1.11,4.32,4.32,0,0,0-1.33-6.14Zm4.59,15.36L18.15,206a5.66,5.66,0,0,1-1.49-8.09,6.28,6.28,0,0,1,8.42-1.71L35.69,203a5.64,5.64,0,0,1,1.49,8.08,6.25,6.25,0,0,1-8.41,1.71"/><path class="cls-9" d="M29.75,200.4l-6.51-3.75a6.51,6.51,0,0,0-2.91-.26A4.32,4.32,0,0,0,17.68,198c-.34.61-1.1.94-1.1,1.88s-.42,1.41,0,2.38A6.78,6.78,0,0,0,18,204.71a70.6,70.6,0,0,0,6,4.08Z"/><path class="cls-10" d="M29.59,202.24a6.52,6.52,0,1,0-6.52-6.52,6.52,6.52,0,0,0,6.52,6.52"/><path class="cls-7" d="M26.72,190.66a5.82,5.82,0,1,0,8,2.16,5.87,5.87,0,0,0-8-2.16m6.57,11.61A7.53,7.53,0,1,1,36.23,192a7.58,7.58,0,0,1-2.94,10.3"/><rect class="cls-7" x="22.94" y="194.84" width="13.4" height="1.7" transform="translate(-92.52 39.97) rotate(-29.5)"/><path class="cls-11" d="M97.17,282.34h0L98.84,284l1.67-1.67C106.85,276.7,111,273,111,268.41a6.6,6.6,0,0,0-6.69-6.69,7.26,7.26,0,0,0-5.44,2.57,7.22,7.22,0,0,0-5.43-2.57,6.6,6.6,0,0,0-6.69,6.69c0,4.59,4.11,8.29,10.45,13.93Z"/><path class="cls-12" d="M89.67,271.43a.59.59,0,0,1-.55-.36,5.53,5.53,0,0,1-.43-2.12.6.6,0,1,1,1.2,0,3.67,3.67,0,0,0,.09.84,3.78,3.78,0,0,0,.24.81.57.57,0,0,1,0,.46.59.59,0,0,1-.33.33A.59.59,0,0,1,89.67,271.43Zm0-3.77a.61.61,0,0,1-.55-.84q.13-.3.3-.6h0l.22-.32a6,6,0,0,1,.66-.81,5.73,5.73,0,0,1,.72-.6l.1-.07a6.37,6.37,0,0,1,.92-.5,6.56,6.56,0,0,1,1-.32,5.65,5.65,0,0,1,1.08-.11.61.61,0,0,1,.6.61.6.6,0,0,1-.6.6,4.52,4.52,0,0,0-.84.08,4.84,4.84,0,0,0-.82.25,4.17,4.17,0,0,0-.71.39,4.87,4.87,0,0,0-.64.52,6.07,6.07,0,0,0-.52.64,4.43,4.43,0,0,0-.39.71A.58.58,0,0,1,89.67,267.66Z"/><ellipse class="cls-7" cx="272.05" cy="197.37" rx="9.77" ry="9.2"/><path class="cls-9" d="M269.79,211.42a10.54,10.54,0,0,1-.82-2.22c-.08-.72-1.2-.61-1.48-.61a35.74,35.74,0,0,1-3.7.47c-1.2,0-2.18-.56-2-1.42s.5-2.19,0-2.47-.67-.81,0-1.12a2.7,2.7,0,0,1-.73-.39c-.31-.25-.06-.53.22-.92s.15-.82-1.2-1.49.23-1.87.48-2.07A5.1,5.1,0,0,0,262.2,196c0-1.48-.62-4.65,3.39-7.08a12.26,12.26,0,0,1,13.49,0,8.43,8.43,0,0,1,1.74,13.33c-2.91,3.39-1.35,5,.14,9.07Zm6.52-7.68a2.94,2.94,0,0,1,1.62-2.77,3.16,3.16,0,0,0,1.82-2.55s1.76-1.82.39-3.39c0,0,.17-3.39-1.68-3.39a2.94,2.94,0,0,0-3.47-1.82s-2.3-1.71-3.5-.08c0,0-2.49-1.15-3.39.7,0,0-2.69-.34-3,2.16a2.63,2.63,0,0,0-1.68,2.63c-.14,2.24,2.16,2.77,3.25,2.69a4.43,4.43,0,0,0,1.54-.28,2.86,2.86,0,0,0,2.77.28s2.36.67,2.36,2v3.78h1.12s0-2.15,0-3.27a2.19,2.19,0,0,1,1.15-1.82,2.74,2.74,0,0,0,1-1.54c.26-1,.28-2-.78-2.44s-2.1-.56-2.41-.31-.78,1.07-.08,2.3l-.51.39a3.24,3.24,0,0,1-.5-1.4,1.74,1.74,0,0,0-1.54.45l-.53-.31a2.21,2.21,0,0,1,2.15-.81,2.27,2.27,0,0,1,.59-1.07s-.34-1-1.2-.86-.51.3-1.6.39a2.8,2.8,0,0,1-1.82,1.93,1.91,1.91,0,0,1-1.74.39c-.89-.08-.86.65-.86.65l-.65-.17a1.74,1.74,0,0,1,.67-1c.51-.28,1.38.11,2-.2a1.52,1.52,0,0,0-1.2-1l0-.64a2.06,2.06,0,0,1,1.82,1.26,2,2,0,0,0,1.26-1.46,2.29,2.29,0,0,0-1-.87l.2-.61a2.43,2.43,0,0,1,1.29,1,3,3,0,0,0,1-.2,1.9,1.9,0,0,1,.9-.14,2.39,2.39,0,0,0,.39-1.12l.7.11a2.39,2.39,0,0,1-.4,1.12,1.74,1.74,0,0,1,.93,1.07,5.26,5.26,0,0,1,1,0,1.39,1.39,0,0,1,.67-1.37l.36.56a.92.92,0,0,0-.3,1,2.72,2.72,0,0,1,2,1.4,1.67,1.67,0,0,0,1.26-.75l.56.39a3.12,3.12,0,0,1-1.68,1.06,5,5,0,0,1-.34,1.91s1.06.44,1.18,1.34l-.65.2c-.31-.82-.87-.87-.87-.87s-.7.67-1.2,1.06a1.67,1.67,0,0,0-.45,1.26l0,2.91h1.24Z"/><path class="cls-7" d="M272.12,106.49c-8.74,0-15.68-8.64-16-9l-.25-.32.25-.32c.29-.36,7.23-9,16-9s15.68,8.65,16,9l.25.32-.25.32c-.29.37-7.22,9-16,9"/><path class="cls-9" d="M268.51,100.77a5.16,5.16,0,0,0,8.75-4.48l-2.37.64-3.47.93.93-3.47L273,92a5.16,5.16,0,0,0-4.48,8.75"/><path class="cls-9" d="M257.52,97.22a28.27,28.27,0,0,0,7.88,6.29l.13-.17a9,9,0,0,1,0-12.37l-.12-.17a28.42,28.42,0,0,0-7.9,6.3l-.05.06Zm21.32,6.29a28.51,28.51,0,0,0,7.89-6.29l0-.06,0-.06a28.51,28.51,0,0,0-7.89-6.29l-.12.17a9,9,0,0,1,0,12.36Zm-6.72-14a7.66,7.66,0,1,0,7.66,7.66,7.67,7.67,0,0,0-7.66-7.66m0,17.18c-8.83,0-15.82-8.72-16.11-9.09l-.34-.43.34-.43c.29-.37,7.28-9.08,16.11-9.08s15.82,8.71,16.11,9.08l.34.43-.34.43c-.29.37-7.28,9.09-16.11,9.09"/><path class="cls-9" d="M278.48,91l.1.12a8.84,8.84,0,0,1,0,12.11l-.1.11.31.41.13-.07a28.43,28.43,0,0,0,7.94-6.33l.17-.18-.17-.18a28.51,28.51,0,0,0-7.93-6.33l-.14-.07Zm-13.16-.35A28.76,28.76,0,0,0,257.38,97l-.16.18.16.18a28.59,28.59,0,0,0,7.94,6.33l.14.07.3-.41-.1-.11a8.84,8.84,0,0,1,0-12.12l.1-.11-.31-.42Zm6.8-1.32A7.84,7.84,0,1,0,280,97.16a7.85,7.85,0,0,0-7.84-7.84m0,17.17c-8.74,0-15.68-8.64-16-9l-.25-.32.25-.32c.29-.36,7.23-9,16-9s15.68,8.65,16,9l.25.32-.25.32c-.29.37-7.22,9-16,9"/><circle class="cls-6" cx="201.57" cy="27.94" r="24.73"/><circle class="cls-13" cx="201.57" cy="27.97" r="24.76"/><path class="cls-7" d="M209.68,18.33a4.81,4.81,0,0,0-3.84-2,7,7,0,0,0-3.34,1.39,4.94,4.94,0,0,1-.93.53,4.94,4.94,0,0,1-.92-.53,7,7,0,0,0-3.34-1.39,4.83,4.83,0,0,0-3.85,2A7.53,7.53,0,0,0,192,22.89a29,29,0,0,0,2,9.28,23.54,23.54,0,0,0,1.74,3.75c.67,1.14,1.26,1.69,1.77,1.69.24,0,.66-.12.89-.88s.44-1.58.66-2.48c.58-2.38,1.3-5.35,2.47-5.35h.07c.52,0,1,.52,1.42,1.58a27.16,27.16,0,0,1,1.07,3.79c.21.89.41,1.74.63,2.46s.65.87.88.87c.52,0,1.1-.56,1.78-1.71a23.79,23.79,0,0,0,1.73-3.79,29,29,0,0,0,2-9.21,7.47,7.47,0,0,0-1.47-4.56m-4.2,1.76"/><path class="cls-9" d="M209.68,18.33a4.81,4.81,0,0,0-3.84-2,7,7,0,0,0-3.34,1.39,4.94,4.94,0,0,1-.93.53,4.94,4.94,0,0,1-.92-.53,7,7,0,0,0-3.34-1.39,4.83,4.83,0,0,0-3.85,2A7.53,7.53,0,0,0,192,22.89a29,29,0,0,0,2,9.28,23.54,23.54,0,0,0,1.74,3.75c.67,1.14,1.26,1.69,1.77,1.69.24,0,.66-.12.89-.88s.44-1.58.66-2.48c.58-2.38,1.3-5.35,2.47-5.35h.07c.52,0,1,.52,1.42,1.58a27.16,27.16,0,0,1,1.07,3.79c.21.89.41,1.74.63,2.46s.65.87.88.87c.52,0,1.1-.56,1.78-1.71a23.79,23.79,0,0,0,1.73-3.79,29,29,0,0,0,2-9.21,7.47,7.47,0,0,0-1.47-4.56m-4.2,1.76a10.88,10.88,0,0,1-2.31-.41,2.62,2.62,0,0,1-1.08-.55,4,4,0,0,1,.79-.61,6.43,6.43,0,0,1,3-1.28c2.83,0,4.53,2.87,4.53,5.65a28.15,28.15,0,0,1-2,8.85,23.15,23.15,0,0,1-1.66,3.64c-.61,1-1,1.34-1.13,1.31s-.08-.08-.14-.26c-.21-.7-.41-1.52-.61-2.4a28.63,28.63,0,0,0-1.13-4c-.58-1.4-1.27-2.09-2.12-2.09h-.07c-.82,0-1.5.68-2.08,2.08A28.86,28.86,0,0,0,198.32,34c-.22.88-.42,1.72-.64,2.42-.05.16-.07.26-.16.28s-.37,0-1.13-1.3a22.85,22.85,0,0,1-1.66-3.59,28.46,28.46,0,0,1-1.95-8.92c0-2.78,1.69-5.65,4.53-5.65a4.77,4.77,0,0,1,2.59,1c.13.1.32.26.49.42l.21.18a8.47,8.47,0,0,0,.82.64,3.31,3.31,0,0,0,.5.31,5,5,0,0,0,2.23.53,4.51,4.51,0,0,0,1.33-.17s.12,0,.11-.07-.11,0-.11,0Zm0,0"/><path class="cls-9" d="M24.14,95.86l-.63.8L23,95.93c0-.05-1.31-2.08-1.31-2.08s-.52-.78-.52-.78l.69-.37a8,8,0,0,0,3.19-3.34,4.17,4.17,0,0,0-1.93-2.43s-2.77-.93-5.59,3.82c-3.54,5.94-5.08,15.72-1.38,15.41l8.16-1.67c2-.94,2.14-1.6,2.45-2.36.42-1,.28-4.49-.34-7.86A5.69,5.69,0,0,0,24.14,95.86Z"/><path class="cls-9" d="M39.29,90.75C36.47,86,33.7,86.93,33.7,86.93c-.89.3-1.64,1.54-2.23,3.19A7.47,7.47,0,0,0,34.2,92.7l.69.37-2.31,3.59-.63-.8a5.9,5.9,0,0,0-1.61-1.28c-.57,3.28-.69,6.56-.28,7.55.31.76.49,1.42,2.45,2.36l8.15,1.67C44.37,106.47,42.83,96.69,39.29,90.75Z"/><path class="cls-9" d="M85.27,37.86,83.33,39.8l-1-1,1.93-1.93-2.42-2.42,1-1,2.42,2.42,2.62-2.63a9,9,0,1,1,1,1.08L86.3,36.83l2.42,2.41-1,1Zm9.66-17.7a7.49,7.49,0,1,0,7.49,7.48A7.49,7.49,0,0,0,94.93,20.16Z"/><path class="cls-7" d="M103.21,36.62A9,9,0,1,1,109.28,21l4.78-4.79H112a.74.74,0,1,1,0-1.47h3.91a.74.74,0,0,1,.72.75v3.89a.74.74,0,0,1-1.47,0V17.24l-4.84,4.85a9,9,0,0,1-7.06,14.53Zm0-16.51a7.52,7.52,0,1,0,7.52,7.52A7.53,7.53,0,0,0,103.21,20.11Z"/><path class="cls-8" d="M147.94,138.81c.3.16.62.31.93.45.49.21,1.85-2.49,2.32-2.33s1,.26,1,.26.46.11,1,.18.55,3.09,1.07,3.11c.35,0,.69,0,1,0,.52,0,.58-3,1.07-3.11s1-.18,1-.18.46-.1,1-.26,1.83,2.54,2.31,2.33c.32-.14.63-.29.94-.45.46-.25-.8-3-.39-3.26s.82-.6.82-.6.37-.29.76-.66,2.75,1.5,3.09,1.1c.23-.25.44-.53.65-.8.31-.43-2-2.36-1.76-2.78s.47-.89.48-.89.21-.42.39-.93,3.13.16,3.27-.35c.09-.33.17-.67.23-1,.09-.52-2.84-1.24-2.79-1.73a12.77,12.77,0,0,0,0-2c0-.49,2.88-1.21,2.79-1.73-.06-.34-.14-.67-.23-1-.14-.51-3.09.11-3.27-.35s-.4-.93-.39-.93-.2-.43-.48-.89,2.07-2.35,1.76-2.77-.42-.55-.65-.81-2.74,1.44-3.09,1.1-.76-.66-.76-.66-.37-.3-.82-.6.85-3,.39-3.26c-.31-.16-.62-.31-.94-.45-.48-.21-1.84,2.49-2.31,2.33s-1-.26-1-.26-.46-.11-1-.18-.55-3.09-1.07-3.11h-1c-.52,0-.58,3-1.07,3.11s-1,.18-1,.18-.46.1-1,.26-1.83-2.54-2.32-2.33c-.31.14-.63.29-.93.45-.46.25.8,3,.39,3.26s-.82.6-.82.6-.37.29-.76.66-2.75-1.5-3.09-1.1-.44.53-.65.81,2,2.35,1.76,2.77-.47.89-.48.89-.21.42-.4.93-3.12-.16-3.26.35c-.09.34-.17.67-.23,1-.1.52,2.84,1.24,2.79,1.73a12.77,12.77,0,0,0,0,2c.05.49-2.89,1.21-2.79,1.73.06.34.14.68.23,1,.14.51,3.09-.11,3.26.35s.41.93.4.93.2.43.48.89-2.07,2.35-1.76,2.78c.21.27.42.55.65.8.34.4,2.73-1.44,3.09-1.1s.76.66.76.66.37.3.82.6S147.48,138.56,147.94,138.81Zm-2.46-12.92a9.26,9.26,0,1,1,9.26,9.26A9.26,9.26,0,0,1,145.48,125.89Z"/><path class="cls-8" d="M160.09,125.89a5.35,5.35,0,1,0-5.35,5.35A5.35,5.35,0,0,0,160.09,125.89Zm-8.66,0a3.31,3.31,0,1,1,3.31,3.31A3.31,3.31,0,0,1,151.43,125.89Z"/><path class="cls-8" d="M154.74,119.82a1.18,1.18,0,1,0-1.18-1.18A1.17,1.17,0,0,0,154.74,119.82Z"/><path class="cls-8" d="M160.69,121.6a1.17,1.17,0,1,0-1.66,0A1.17,1.17,0,0,0,160.69,121.6Z"/><path class="cls-8" d="M162,127.07a1.18,1.18,0,1,0-1.18-1.18A1.18,1.18,0,0,0,162,127.07Z"/><path class="cls-8" d="M159,130.18a1.18,1.18,0,0,0,0,1.67,1.17,1.17,0,0,0,1.66,0,1.18,1.18,0,1,0-1.66-1.67Z"/><path class="cls-8" d="M155.91,133.14a1.18,1.18,0,1,0-1.17,1.17A1.17,1.17,0,0,0,155.91,133.14Z"/><path class="cls-8" d="M148.78,130.18a1.18,1.18,0,1,0,1.67,0A1.2,1.2,0,0,0,148.78,130.18Z"/><path class="cls-8" d="M147.49,124.72a1.16,1.16,0,0,0-1.17,1.17,1.18,1.18,0,1,0,1.17-1.17Z"/><path class="cls-8" d="M150.45,121.6a1.17,1.17,0,0,0,0-1.66,1.18,1.18,0,1,0,0,1.66Z"/><circle class="cls-14" cx="150.31" cy="149.43" r="54.88"/><circle class="cls-15" cx="98.87" cy="27.97" r="24.76"/><circle class="cls-16" cx="271.77" cy="97.16" r="24.76"/><circle class="cls-17" cx="271.77" cy="200.6" r="24.76"/><circle class="cls-18" cx="201.43" cy="271.27" r="24.76"/><circle class="cls-19" cx="28.95" cy="200.6" r="24.76"/><circle class="cls-20" cx="28.95" cy="97.16" r="24.76"/><circle class="cls-21" cx="98.84" cy="271.24" r="24.76"/></g></g></svg>